<svg width="311" height="433" viewBox="0 0 311 433" fill="none" xmlns="http://www.w3.org/2000/svg">
<g clip-path="url(#clip0_2_41)">
<path d="M25.8864 318.5H235.114C236.277 318.499 237.392 318.036 238.214 317.215C239.036 316.393 239.499 315.28 239.5 314.118V10.8819C239.499 9.72034 239.036 8.60662 238.214 7.7851C237.392 6.96357 236.277 6.50137 235.114 6.5H25.8861C24.7231 6.50137 23.6083 6.96357 22.786 7.7851C21.9638 8.60668 21.5013 9.72051 21.5 10.8822V314.118C21.5013 315.279 21.9638 316.393 22.7861 317.215C23.6084 318.036 24.7233 318.499 25.8864 318.5Z" fill="#EFE9FC" stroke="#E3D6FF"/>
<path d="M181.371 339.142C202.276 311.546 193.986 280.051 206.233 258.079C253.173 173.867 195.373 181.626 130.025 198.002L129.869 199.819C171.461 206.237 198.814 227.643 204.915 258.546C209.657 282.564 200.956 310.724 180.415 337.839L181.371 339.142Z" fill="#F0F0F0"/>
<path d="M135.451 236.441L135.888 234.709C112.553 224.129 114.558 192.619 93.6811 185.423C-65.3531 130.61 91.6311 124.428 126.942 95.4343C158.518 69.5064 192.931 39.3616 236.667 23.8362L236.318 22.0687C192.392 37.6623 153.235 63.2217 126.062 94.0385C98.7513 125.01 86.7835 157.63 92.3629 185.891C96.7628 208.176 111.662 225.656 135.451 236.441Z" fill="#F0F0F0"/>
<path d="M198.971 175.708C209.634 174.866 197.051 167.809 196.209 157.145C196.01 154.609 195.313 152.137 194.158 149.87C193.003 147.603 191.413 145.586 189.478 143.934C187.543 142.282 185.302 141.027 182.882 140.241C180.462 139.455 177.911 139.154 175.375 139.354C172.839 139.555 170.367 140.253 168.1 141.409C165.834 142.565 163.818 144.156 162.166 146.091C160.515 148.027 159.261 150.269 158.476 152.689C157.692 155.109 157.392 157.66 157.593 160.196C158.435 170.859 188.307 176.55 198.971 175.708Z" fill="#7368EE"/>
<path d="M96.5838 109.321C99.1194 109.121 101.591 108.423 103.857 107.268C106.122 106.112 108.139 104.522 109.79 102.587C111.441 100.653 112.695 98.4121 113.48 95.9929C114.266 93.5737 114.567 91.0235 114.367 88.488C113.524 77.8246 134.7 70.6915 124.037 71.5339C113.373 72.3762 74.9082 80.8751 75.7506 91.5385C75.9509 94.0741 76.6486 96.5453 77.804 98.8112C78.9594 101.077 80.5497 103.093 82.4843 104.744C84.4188 106.396 86.6596 107.65 89.0788 108.435C91.4981 109.22 94.0482 109.521 96.5838 109.321Z" fill="#7368EE"/>
<path d="M73.244 85.0139C71.8387 87.9291 72.6672 91.2972 74.5231 93.8141C76.6341 96.6769 79.9918 98.0881 83.4362 98.5545C87.1333 99.0033 90.8831 98.6945 94.457 97.647C97.9046 96.652 101.483 94.5194 102.194 90.7093C102.668 88.1699 101.584 85.4599 98.9472 84.756C97.8895 84.4885 96.7807 84.498 95.7278 84.7837C94.6748 85.0694 93.7132 85.6215 92.9357 86.3869C90.746 88.6659 90.9127 92.3238 92.3044 94.9708C93.9411 98.0841 97.2161 99.8021 100.583 100.369C104.587 101.043 108.609 100.102 112.375 98.7619C116.469 97.3059 120.439 95.4928 124.45 93.8273C132.271 90.5794 140.261 87.5282 148.672 86.2347C161.52 84.2586 176.769 87.3356 184.634 98.5999C188.88 104.681 190.083 112.307 189.169 119.561C188.205 127.212 184.848 134.243 180.403 140.468C178.049 143.707 175.479 146.782 172.71 149.674C171.809 150.55 171.188 151.675 170.928 152.905C170.667 154.135 170.778 155.414 171.246 156.581C173.683 162.568 183.425 160.66 184.151 154.489C184.481 151.685 182.917 148.797 180.962 146.895C178.743 144.82 175.948 143.466 172.945 143.011C166.623 141.955 159.941 144.299 155.109 148.37C149.65 152.97 146.576 159.959 144.957 166.763C143.114 174.51 143.02 182.478 142.845 190.396C142.666 198.5 142.358 206.699 140.033 214.52C138.143 220.816 135.224 226.755 131.396 232.098C123.749 242.862 112.879 250.917 100.355 255.1C97.3258 256.083 94.2195 256.811 91.0686 257.276C89.8351 257.458 89.6878 255.527 90.9161 255.345C104.651 253.309 117.281 245.872 126.323 235.419C130.854 230.205 134.435 224.235 136.904 217.783C139.852 210.011 140.6 201.756 140.841 193.507C141.086 185.083 140.953 176.583 142.639 168.285C144.13 160.948 147.055 153.52 152.471 148.174C157.247 143.461 164.079 140.546 170.832 140.858C177.115 141.149 183.833 144.61 185.7 151.02C186.576 154.028 186.019 157.257 183.722 159.492C182.413 160.734 180.785 161.588 179.02 161.962C177.254 162.335 175.42 162.211 173.72 161.605C171.873 160.807 170.39 159.349 169.558 157.517C168.727 155.685 168.606 153.609 169.221 151.693C169.738 150.286 170.569 149.015 171.65 147.978C177.318 141.924 182.519 135.151 185.342 127.269C187.975 119.917 188.515 111.461 185.478 104.145C179.731 90.297 163.049 86.1358 149.461 88.0713C140.568 89.338 132.148 92.7048 123.911 96.1486C119.704 97.9071 115.525 99.8615 111.163 101.208C107.257 102.413 103.066 103.018 99.0414 102.03C95.5292 101.167 92.3012 99.1248 90.5998 95.8581C89.0544 92.8908 88.7877 89.1254 90.6256 86.2183C93.2829 82.0153 100.62 81.0698 103.294 85.7906C105.068 88.923 104.196 92.9341 101.866 95.5319C99.254 98.4445 95.3422 99.6341 91.5986 100.235C84.5247 101.369 75.8138 100.477 72.0293 93.4905C70.4702 90.6121 70.0492 87.1802 71.4998 84.1711C71.6168 83.9487 71.8156 83.7805 72.0543 83.7019C72.293 83.6232 72.5528 83.6404 72.7791 83.7498C73.0054 83.8591 73.1803 84.052 73.267 84.2879C73.3538 84.5237 73.3455 84.784 73.244 85.0139Z" fill="#3F3D56"/>
<path d="M95.9984 257.67C107.306 256.777 137.542 272.249 145.726 265.593C146.749 264.767 147.739 263.901 148.695 262.995C151.824 260.06 154.588 256.758 156.926 253.161C157.331 252.553 157.717 251.939 158.089 251.321C159.4 249.123 160.555 246.835 161.544 244.475C161.717 244.046 161.89 243.612 162.063 243.177C166.669 231.274 166.902 218.122 162.721 206.063C158.541 194.004 150.217 183.819 139.231 177.321C128.246 170.823 115.311 168.433 102.729 170.577C90.1465 172.721 78.733 179.259 70.5192 189.028C70.0805 189.542 69.6558 190.068 69.2385 190.606C65.0691 195.946 61.9479 202.026 60.0398 208.527C60.0403 208.533 60.0338 208.534 60.0343 208.54C57.1883 218.288 57.1421 228.639 59.9008 238.412L59.9019 238.425C59.9642 238.64 60.0265 238.855 60.0953 239.07C67.158 262.972 70.1578 259.711 95.9984 257.67Z" fill="#7368EE"/>
<path d="M161.3 244.5C161.382 244.502 161.464 244.493 161.544 244.475C161.717 244.046 161.89 243.612 162.063 243.177C161.99 242.995 161.863 242.839 161.7 242.731C161.536 242.622 161.343 242.566 161.147 242.57C160.168 242.566 159.193 242.454 158.239 242.236C149.957 240.364 145.13 231.887 143.062 224.317C140.523 215.056 140.488 205.105 135.901 196.466C134.118 192.916 131.498 189.853 128.266 187.543C124.718 185.138 120.406 184.129 116.159 184.711C106.167 186.031 98.8736 193.724 89.5974 196.892C85.776 198.198 81.7084 198.519 77.8868 197.034C74.6399 195.775 71.6782 193.289 71.0073 189.715C70.9852 189.571 70.9295 189.433 70.8447 189.314C70.7599 189.195 70.6485 189.097 70.5192 189.028C70.0805 189.542 69.6558 190.068 69.2385 190.606C69.3875 191.251 69.6043 191.879 69.8851 192.478C71.5152 195.899 74.766 198.109 78.3052 199.216C82.4018 200.491 86.6636 200.006 90.6502 198.577C99.9458 195.246 107.591 187.013 117.854 186.5C126.75 186.056 132.897 193.368 135.857 200.996C139.517 210.434 138.973 221.014 143.082 230.313C146.315 237.628 152.794 244.466 161.3 244.5Z" fill="#3F3D56"/>
<path d="M156.926 253.161C157.331 252.553 157.717 251.939 158.089 251.321C157.999 251.249 157.894 251.197 157.783 251.169C157.671 251.141 157.555 251.137 157.441 251.158C149.141 252.138 140.78 249.909 134.069 244.929C131.124 242.776 128.564 240.14 126.498 237.134C124.352 233.988 123.056 230.451 121.601 226.958C120.17 223.522 118.491 220.048 115.645 217.559C112.744 215.023 109.001 213.959 105.21 213.844C96.2258 213.576 88.3916 218.682 79.6478 219.736C75.7474 220.206 71.8756 219.644 68.5367 217.466C65.655 215.583 63.5569 212.633 63.6917 209.093C63.7418 207.924 62.0381 208 61.7892 209.03C61.7722 209.101 61.7627 209.173 61.7609 209.246C61.607 213.364 64.139 216.887 67.4715 219.066C71.3439 221.603 75.8684 222.23 80.3963 221.587C89.157 220.338 97.2543 215.036 106.319 215.835C108.222 215.945 110.08 216.453 111.773 217.327C113.466 218.2 114.957 219.42 116.149 220.906C118.535 223.969 119.795 227.71 121.267 231.259C122.664 234.806 124.617 238.108 127.052 241.041C129.517 243.904 132.424 246.355 135.663 248.3C142.034 252.189 149.498 253.895 156.926 253.161Z" fill="#3F3D56"/>
<path d="M145.726 265.593C146.749 264.767 147.739 263.901 148.695 262.995C143.762 264.25 138.623 264.464 133.603 263.623C127.287 262.61 121.329 260.02 116.28 256.094C113.766 254.125 111.548 251.805 109.694 249.205C107.581 246.231 105.734 242.945 102.548 240.975C95.6308 236.703 87.3518 240.608 80.4458 242.708C76.8413 243.809 72.9693 244.555 69.2981 243.336C66.4515 242.389 63.6886 240.289 63.1262 237.186C62.9068 235.966 60.969 236.113 61.1954 237.338C61.2394 237.568 61.2899 237.797 61.3469 238.026C62.2347 241.394 64.9913 243.825 68.2449 245.006C72.491 246.536 76.89 245.819 81.1081 244.534C88.0453 242.419 97.1116 238.069 103.388 244.069C106.036 246.599 107.66 250.026 110.048 252.791C112.178 255.269 114.636 257.445 117.353 259.26C125.697 264.818 135.81 267.075 145.726 265.593Z" fill="#3F3D56"/>
<path d="M19.4876 402.115H65.3255C66.7804 402.113 68.1752 401.535 69.204 400.506C70.2328 399.477 70.8115 398.082 70.8132 396.628V380.488C70.8115 379.033 70.2329 377.638 69.2041 376.609C68.1753 375.58 66.7804 375.002 65.3255 375H19.4876C18.0327 375.002 16.6379 375.58 15.6091 376.609C14.5803 377.638 14.0016 379.033 14 380.488V396.628C14.0017 398.082 14.5803 399.477 15.6091 400.506C16.6379 401.535 18.0327 402.113 19.4876 402.115Z" fill="#E6E6E6"/>
<path d="M276.151 215.865L274.941 227.087L275.653 241.801L243.06 237.929L239.997 215.865L243.899 215.903L276.151 215.865Z" fill="#FFB6B6"/>
<path d="M237.26 181.09L247.337 177.363L251.643 171.11L267.132 169.561L276.687 175.682L284.697 179.761L284.559 201.058L275.35 239.194L242.424 237.903L238.091 210.708C238.091 210.708 228.022 197.185 238.865 189.44L237.26 181.09Z" fill="#CCCCCC"/>
<path d="M293.056 419.599H285.93L282.54 392.113H293.056V419.599Z" fill="#FFB6B6"/>
<path d="M295.382 414.718L283.998 414.039V418.916L273.174 426.391C272.639 426.76 272.237 427.291 272.025 427.905C271.813 428.519 271.803 429.185 271.996 429.805C272.19 430.425 272.576 430.968 273.099 431.353C273.623 431.738 274.255 431.945 274.905 431.945H288.459L290.795 427.12L291.707 431.945H296.818L295.382 414.718Z" fill="#2F2E41"/>
<path d="M253.029 419.599H245.903L242.512 392.113H253.029V419.599Z" fill="#FFB6B6"/>
<path d="M255.355 414.718L243.97 414.039V418.916L233.146 426.391C232.612 426.76 232.209 427.291 231.997 427.905C231.785 428.519 231.775 429.185 231.969 429.805C232.162 430.425 232.549 430.968 233.072 431.353C233.595 431.738 234.228 431.945 234.878 431.945H248.431L250.768 427.12L251.68 431.945H256.79L255.355 414.718Z" fill="#2F2E41"/>
<path d="M296.131 395.896H296.054L294.683 351.206C295.57 349.495 296.02 347.592 295.993 345.665C295.967 343.738 295.464 341.848 294.53 340.163L294.334 339.808L294.842 337.45C295.496 334.42 295.196 331.262 293.984 328.409L292.705 286.722C297.273 257.12 275.505 237.815 275.505 237.815H242.897L235.896 261.867C231.268 306.956 232.108 350.894 239.452 393.462L239.252 393.564C238.531 393.812 238.222 394.811 238.561 395.794C238.9 396.777 239.76 397.373 240.481 397.124L257.702 396.525C258.423 396.276 258.732 395.277 258.393 394.294C258.053 393.311 257.194 392.716 256.473 392.965L255.302 393.557L257.799 350.432L257.522 342.555L258.093 333.619L260.732 293.424L270.724 342.853L280.93 396.394C280.648 396.649 280.451 396.983 280.363 397.352C280.276 397.722 280.302 398.109 280.439 398.463C280.576 398.817 280.818 399.122 281.131 399.336C281.445 399.55 281.816 399.664 282.196 399.663H296.131C296.631 399.663 297.11 399.464 297.463 399.111C297.816 398.758 298.014 398.279 298.014 397.78C298.014 397.28 297.816 396.801 297.463 396.448C297.11 396.095 296.631 395.896 296.131 395.896Z" fill="#2F2E41"/>
<path d="M299.521 269.284C300.143 268.684 300.627 267.955 300.937 267.149C301.247 266.342 301.376 265.477 301.315 264.615C301.255 263.752 301.006 262.914 300.587 262.158C300.167 261.403 299.587 260.748 298.887 260.241L290.199 206.914L280.01 210.499L290.335 261.87C289.561 263.102 289.265 264.575 289.505 266.01C289.745 267.446 290.502 268.743 291.635 269.657C292.767 270.571 294.195 271.038 295.649 270.969C297.102 270.9 298.48 270.301 299.521 269.284Z" fill="#FFB6B6"/>
<path d="M283.326 179.713C283.326 179.713 286.249 178.612 287.31 185.143C288.159 190.372 296.449 221.935 295.665 229.248C296.638 229.589 297.47 230.244 298.029 231.109C298.589 231.975 298.845 233.002 298.757 234.029L283.47 234.108C281.129 231.555 280.826 228.474 281.956 227.718L279.841 218.386L269.881 188.28L281.2 180.472L283.326 179.713Z" fill="#CCCCCC"/>
<path d="M229.142 271.554C228.471 271.01 227.927 270.326 227.548 269.548C227.17 268.771 226.967 267.921 226.953 267.057C226.939 266.192 227.115 265.336 227.468 264.547C227.82 263.758 228.342 263.056 228.996 262.49L232.095 208.851L243.523 211.308L237.657 263.377C238.534 264.538 238.955 265.98 238.84 267.431C238.724 268.881 238.081 270.239 237.032 271.247C235.982 272.255 234.599 272.843 233.145 272.9C231.691 272.957 230.267 272.478 229.142 271.554Z" fill="#FFB6B6"/>
<path d="M237.569 180.922C237.569 180.922 234.563 180.076 234.068 186.675C233.672 191.958 228.128 224.116 229.539 231.335C228.599 231.758 227.827 232.482 227.343 233.393C226.86 234.303 226.694 235.349 226.87 236.364L242.107 235.127C244.219 232.382 244.257 229.287 243.065 228.63L244.369 219.152L251.702 188.3L239.753 181.495L237.569 180.922Z" fill="#CCCCCC"/>
<path d="M266.184 168.461C257.671 168.461 250.769 161.56 250.769 153.047C250.769 144.534 257.671 137.633 266.184 137.633C274.697 137.633 281.598 144.534 281.598 153.047C281.598 161.56 274.697 168.461 266.184 168.461Z" fill="#FFB8B8"/>
<path d="M296.818 185.441C300.08 184.285 303.342 183.127 306.604 181.967C306.042 181.023 305.326 180.181 304.485 179.474C301.38 176.88 297.093 176.412 293.15 175.537C289.201 174.662 284.914 172.869 283.471 169.094C281.971 165.17 284.145 160.933 285.408 156.934C287.176 151.354 287.139 145.124 284.77 139.775C282.402 134.426 277.59 130.089 271.879 128.815C266.167 127.546 259.712 129.614 256.201 134.289C253.938 133.61 251.505 133.783 249.361 134.775C247.218 135.768 245.512 137.511 244.565 139.675C243.747 141.725 243.722 144.193 244.94 146.036C246.159 147.88 248.764 148.823 250.726 147.798L249.589 144.911C253.107 146.105 255.394 152.466 254.919 156.153C254.451 159.834 252.301 163.058 250.12 166.064C247.939 169.069 245.615 172.106 244.678 175.699C243.328 180.867 245.153 186.516 248.527 190.659C251.901 194.802 256.657 197.614 261.581 199.682C265.267 201.232 269.097 202.412 273.016 203.206C272.316 201.844 271.623 200.482 270.923 199.12L279.228 204.144C280.834 204.3 282.452 204.394 284.07 204.425C288.782 204.506 293.587 204.013 297.899 202.132C302.217 200.245 306.01 196.826 307.572 192.384C308.073 190.947 308.31 189.431 308.272 187.909C304.454 187.085 300.636 186.262 296.818 185.441Z" fill="#2F2E41"/>
<path d="M312.363 414.966C312.841 414.988 313.314 414.863 313.718 414.607C314.122 414.351 314.438 413.977 314.623 413.536C314.807 413.095 314.852 412.608 314.75 412.14C314.648 411.673 314.405 411.248 314.054 410.923C313.995 410.69 313.953 410.522 313.894 410.288C313.915 410.237 313.936 410.186 313.958 410.135C314.439 408.998 315.246 408.029 316.276 407.349C317.307 406.669 318.515 406.309 319.75 406.313C320.984 406.318 322.19 406.687 323.215 407.375C324.241 408.063 325.04 409.038 325.513 410.178C327.403 414.73 329.809 419.29 330.402 424.102C330.663 426.23 330.553 428.386 330.076 430.476C334.515 420.793 336.82 410.269 336.835 399.617C336.836 396.944 336.688 394.273 336.39 391.617C336.145 389.439 335.804 387.277 335.368 385.13C332.989 373.483 327.88 362.566 320.463 353.276C316.873 351.317 313.969 348.304 312.144 344.645C311.483 343.329 311.015 341.925 310.756 340.475C311.161 340.528 311.573 340.561 311.978 340.588C312.104 340.595 312.237 340.601 312.363 340.608L312.41 340.61C312.856 340.63 313.297 340.521 313.681 340.296C314.066 340.071 314.377 339.739 314.578 339.342C314.778 338.944 314.86 338.496 314.812 338.053C314.764 337.61 314.589 337.191 314.309 336.845C314.134 336.63 313.959 336.415 313.784 336.2C313.518 335.868 313.246 335.542 312.98 335.21C312.95 335.179 312.921 335.145 312.894 335.111C312.589 334.732 312.283 334.36 311.978 333.982C312.535 333.117 313.285 332.392 314.169 331.864C317.229 330.072 321.452 331.313 323.663 334.082C325.88 336.85 326.299 340.734 325.529 344.193C324.771 347.136 323.518 349.929 321.824 352.452C321.99 352.665 322.162 352.871 322.328 353.083C325.363 356.984 328.007 361.174 330.224 365.591C329.685 360.643 330.328 355.637 332.101 350.985C333.898 346.65 337.267 342.999 340.233 339.251C343.796 334.75 351.101 336.714 351.729 342.421C351.735 342.476 351.741 342.531 351.747 342.586C351.306 342.835 350.875 343.099 350.453 343.378C349.923 343.732 349.512 344.238 349.275 344.83C349.037 345.421 348.984 346.071 349.122 346.693C349.26 347.316 349.582 347.882 350.048 348.318C350.513 348.754 351.099 349.039 351.729 349.136L351.793 349.146C351.636 350.734 351.359 352.307 350.963 353.853C349.817 358.168 347.792 362.2 345.015 365.696C342.238 369.192 338.768 372.077 334.823 374.169C334.565 374.302 334.312 374.435 334.053 374.561C336.281 380.873 337.678 387.448 338.209 394.12C338.511 398.056 338.493 402.011 338.156 405.944L338.176 405.805C339.026 401.431 341.36 397.484 344.782 394.631C349.866 390.455 357.048 388.917 362.533 385.56C363.116 385.186 363.793 384.986 364.486 384.985C365.179 384.983 365.857 385.18 366.442 385.551C367.027 385.922 367.493 386.453 367.786 387.081C368.079 387.708 368.186 388.407 368.095 389.093C368.088 389.142 368.08 389.191 368.073 389.24C367.255 389.573 366.459 389.957 365.689 390.389C365.249 390.637 364.818 390.901 364.396 391.18C363.865 391.534 363.455 392.04 363.217 392.632C362.98 393.223 362.926 393.873 363.064 394.495C363.202 395.118 363.525 395.684 363.99 396.12C364.455 396.556 365.041 396.841 365.671 396.938L365.736 396.948C365.782 396.955 365.822 396.961 365.869 396.968C364.472 400.303 362.511 403.374 360.073 406.044C357.06 409.276 353.419 411.859 349.373 413.634C345.327 415.41 340.961 416.34 336.543 416.368H336.536C335.337 421.58 333.599 426.653 331.351 431.505H312.828C312.761 431.299 312.701 431.087 312.642 430.881C314.356 430.989 316.078 430.886 317.767 430.576C316.393 428.889 315.019 427.19 313.644 425.503C313.614 425.472 313.585 425.438 313.558 425.404C312.861 424.541 312.157 423.684 311.46 422.821L311.46 422.82C311.422 420.174 311.726 417.535 312.363 414.967L312.363 414.966Z" fill="#F2F2F2"/>
<path d="M187.947 432.802L365.972 433C366.176 433 366.371 432.919 366.516 432.775C366.66 432.631 366.741 432.435 366.741 432.231C366.741 432.027 366.66 431.832 366.516 431.688C366.371 431.544 366.176 431.463 365.972 431.463L187.947 431.264C187.743 431.264 187.547 431.345 187.403 431.489C187.259 431.633 187.178 431.829 187.178 432.033C187.178 432.237 187.259 432.432 187.403 432.576C187.547 432.721 187.743 432.802 187.947 432.802Z" fill="#CACACA"/>
</g>
<defs>
<clipPath id="clip0_2_41">
<rect width="311" height="433" fill="white" transform="matrix(-1 0 0 1 311 0)"/>
</clipPath>
</defs>
</svg>
