<svg width="14" height="14" viewBox="0 0 14 14" fill="none" xmlns="http://www.w3.org/2000/svg">
<path d="M10.7197 2.57739C10.2511 2.57739 9.89966 2.92886 9.89966 3.39748C9.89966 3.8661 10.2511 4.21756 10.7197 4.21756C11.1884 4.21756 11.5398 3.8661 11.5398 3.39748C11.5398 2.92886 11.1884 2.57739 10.7197 2.57739Z" fill="black"/>
<path d="M7.02931 3.63184C5.09625 3.63184 3.57324 5.21343 3.57324 7.0879C3.57324 8.96238 5.15483 10.544 7.02931 10.544C8.90379 10.544 10.4854 8.96238 10.4854 7.0879C10.4854 5.21343 8.96236 3.63184 7.02931 3.63184ZM7.02931 9.31384C5.79918 9.31384 4.80337 8.31803 4.80337 7.0879C4.80337 5.85778 5.79918 4.86196 7.02931 4.86196C8.25943 4.86196 9.25525 5.85778 9.25525 7.0879C9.25525 8.31803 8.25943 9.31384 7.02931 9.31384Z" fill="black"/>
<path d="M9.841 0H4.27615C1.87448 0 0 1.87448 0 4.21757V9.78243C0 12.1255 1.87448 14 4.21757 14H9.78243C12.1255 14 14 12.1255 14 9.78243V4.21757C14.0586 1.87448 12.1841 0 9.841 0ZM12.7113 9.841C12.7113 11.4226 11.4226 12.7699 9.78243 12.7699H4.21757C2.63598 12.7699 1.2887 11.4812 1.2887 9.841V4.27615C1.2887 2.69456 2.57741 1.34728 4.21757 1.34728H9.78243C11.364 1.34728 12.7113 2.63598 12.7113 4.27615V9.841Z" fill="black"/>
</svg>
