<svg width="50" height="64" viewBox="0 0 50 64" fill="none" xmlns="http://www.w3.org/2000/svg">
<path fill-rule="evenodd" clip-rule="evenodd" d="M11.3334 16C11.3334 10.109 16.109 5.33337 22.0001 5.33337H36.6667C43.2942 5.33337 48.6667 10.706 48.6667 17.3334V46.6667C48.6667 53.2942 43.2942 58.6667 36.6667 58.6667H22.0001C16.109 58.6667 11.3334 53.891 11.3334 48V45.3334C11.3334 43.8606 12.5273 42.6667 14.0001 42.6667C15.4728 42.6667 16.6667 43.8606 16.6667 45.3334V48C16.6667 50.9456 19.0545 53.3334 22.0001 53.3334H36.6667C40.3486 53.3334 43.3334 50.3486 43.3334 46.6667V17.3334C43.3334 13.6515 40.3486 10.6667 36.6667 10.6667H22.0001C19.0545 10.6667 16.6667 13.0545 16.6667 16V18.6667C16.6667 20.1395 15.4728 21.3334 14.0001 21.3334C12.5273 21.3334 11.3334 20.1395 11.3334 18.6667V16ZM22.7811 22.1144C23.8225 21.073 25.511 21.073 26.5523 22.1144L34.5523 30.1144C35.5937 31.1558 35.5937 32.8443 34.5523 33.8856L26.5523 41.8856C25.511 42.927 23.8225 42.927 22.7811 41.8856C21.7398 40.8443 21.7398 39.1558 22.7811 38.1144L26.2289 34.6667H3.33341C1.86067 34.6667 0.666748 33.4728 0.666748 32C0.666748 30.5272 1.86067 29.3334 3.33341 29.3334H26.2289L22.7811 25.8857C21.7398 24.8443 21.7398 23.1558 22.7811 22.1144Z" fill="white" stroke="white" stroke-width="0.00064"/>
</svg>
