<svg width="16" height="16" viewBox="0 0 16 16" fill="none" xmlns="http://www.w3.org/2000/svg">
<path fill-rule="evenodd" clip-rule="evenodd" d="M16 14.2222V3.55556L12.4444 0H1.77778C1.28889 0 0.87037 0.174074 0.522222 0.522222C0.174074 0.87037 0 1.28889 0 1.77778V14.2222C0 14.7111 0.174074 15.1296 0.522222 15.4778C0.87037 15.8259 1.28889 16 1.77778 16H14.2222C14.7111 16 15.1296 15.8259 15.4778 15.4778C15.8259 15.1296 16 14.7111 16 14.2222ZM11.6889 1.77778L14.2222 4.31111V14.2222H1.77778V4.31111V1.77778H11.6889ZM9.88889 12.5556C9.37037 13.0741 8.74074 13.3333 8 13.3333C7.25926 13.3333 6.62963 13.0741 6.11111 12.5556C5.59259 12.037 5.33333 11.4074 5.33333 10.6667C5.33333 9.92593 5.59259 9.2963 6.11111 8.77778C6.62963 8.25926 7.25926 8 8 8C8.74074 8 9.37037 8.25926 9.88889 8.77778C10.4074 9.2963 10.6667 9.92593 10.6667 10.6667C10.6667 11.4074 10.4074 12.037 9.88889 12.5556ZM10.6667 2.66667V4.44444H2.66667V2.66667H10.6667Z" fill="white"/>
</svg>
