<svg width="14" height="14" viewBox="0 0 14 14" fill="none" xmlns="http://www.w3.org/2000/svg">
<path d="M13.6104 4.6971C13.8625 5.41865 14 6.1935 14 7C14 7.8065 13.8625 8.58136 13.6104 9.3029C13.6042 9.32457 13.5969 9.34571 13.5881 9.36605C12.6158 12.065 10.0298 14 7 14C3.97018 14 1.38409 12.065 0.411883 9.36605C0.403052 9.34564 0.395694 9.32457 0.389606 9.3029C0.13754 8.58136 0 7.8065 0 7C0 6.1935 0.13754 5.41865 0.389606 4.6971C0.395761 4.67543 0.403052 4.65429 0.411883 4.63395C1.38416 1.93497 3.97018 7.30159e-07 7 7.30159e-07C10.0298 7.30159e-07 12.6158 1.93503 13.5881 4.63395C13.5969 4.65429 13.6042 4.67536 13.6104 4.6971ZM7 1.00337C6.73342 1.00337 6.30361 1.48583 5.94437 2.56366C5.77097 3.08377 5.63216 3.68169 5.53102 4.33212H8.46898C8.36784 3.68169 8.22903 3.08384 8.0557 2.56366C7.69639 1.48583 7.26658 1.00337 7 1.00337ZM5.40926 5.33556C5.36103 5.8706 5.33554 6.42878 5.33554 7C5.33554 7.57123 5.36103 8.12941 5.40926 8.66444H8.59067C8.6389 8.12941 8.66439 7.57123 8.66439 7C8.66439 6.42878 8.6389 5.8706 8.59067 5.33556H5.40926ZM1.00338 6.99993C1.00338 7.57725 1.0856 8.13569 1.23859 8.66437H4.4028C4.35591 8.1183 4.33209 7.55865 4.33209 6.99993C4.33209 6.44122 4.35584 5.88157 4.4028 5.33549H1.23859C1.0856 5.86424 1.00338 6.42262 1.00338 6.99993ZM7 12.9966C7.26658 12.9966 7.69646 12.5141 8.0557 11.4363C8.22903 10.9162 8.3679 10.3182 8.46898 9.66788H5.53095C5.6321 10.3183 5.77091 10.9162 5.9443 11.4363C6.30361 12.5141 6.73342 12.9966 7 12.9966ZM9.59713 8.66437H12.7613C12.9143 8.13569 12.9965 7.57725 12.9965 6.99993C12.9965 6.42262 12.9143 5.86417 12.7613 5.33549H9.59713C9.64402 5.88157 9.66784 6.44122 9.66784 6.99993C9.66784 7.55865 9.64402 8.1183 9.59713 8.66437ZM12.3693 9.66781H9.482C9.30352 10.8985 8.99733 12.0026 8.56779 12.7881C10.2332 12.3366 11.6129 11.1839 12.3693 9.66781ZM5.43214 12.7882C5.0026 12.0027 4.69641 10.8986 4.51793 9.66781H1.63067C2.38707 11.1839 3.76675 12.3366 5.43214 12.7882ZM1.63067 4.33212H4.51793C4.69641 3.10143 5.0026 1.99732 5.43214 1.21176C3.76675 1.6633 2.38707 2.81592 1.63067 4.33212ZM8.56779 1.21176C8.99733 1.99725 9.30352 3.10137 9.482 4.33212H12.3693C11.6129 2.81592 10.2332 1.6633 8.56779 1.21176Z" fill="black"/>
</svg>
