<svg width="24" height="23" viewBox="0 0 24 23" fill="none" xmlns="http://www.w3.org/2000/svg">
<path d="M13.1587 0.722033L15.8656 6.21836C16.0538 6.60064 16.4178 6.86552 16.8388 6.92673L22.8919 7.80816C23.9522 7.96268 24.3753 9.26803 23.6083 10.017L19.2283 14.2953C18.9239 14.5928 18.7848 15.0217 18.8569 15.4416L19.8906 21.4828C20.0719 22.5408 18.9635 23.3475 18.0153 22.8483L12.6015 19.9963C12.225 19.7981 11.775 19.7981 11.3985 19.9963L5.9847 22.8483C5.03651 23.348 3.92812 22.5408 4.10935 21.4828L5.14315 15.4416C5.21524 15.0217 5.07606 14.5928 4.77168 14.2953L0.391687 10.017C-0.375275 9.26753 0.0477552 7.96218 1.10809 7.80816L7.16118 6.92673C7.58221 6.86552 7.94616 6.60064 8.1344 6.21836L10.8413 0.722033C11.3149 -0.240678 12.6846 -0.240678 13.1587 0.722033Z" fill="#FFE01A"/>
</svg>
